<?xml version="1.0" encoding="UTF-8" standalone="no"?>
<svg
   xmlns:dc="http://purl.org/dc/elements/1.1/"
   xmlns:cc="http://creativecommons.org/ns#"
   xmlns:rdf="http://www.w3.org/1999/02/22-rdf-syntax-ns#"
   xmlns:svg="http://www.w3.org/2000/svg"
   xmlns="http://www.w3.org/2000/svg"
   xmlns:sodipodi="http://sodipodi.sourceforge.net/DTD/sodipodi-0.dtd"
   xmlns:inkscape="http://www.inkscape.org/namespaces/inkscape"
   width="7.000001in"
   height="1.4610522in"
   viewBox="0 0 177.80003 37.110727"
   version="1.1"
   id="svg8"
   inkscape:version="1.0.2 (e86c870879, 2021-01-15)"
   sodipodi:docname="wide-fig-example.svg">
  <defs
     id="defs2">
    <marker
       style="overflow:visible"
       id="marker1791"
       refX="0"
       refY="0"
       orient="auto"
       inkscape:stockid="Arrow1Mend"
       inkscape:isstock="true">
      <path
         transform="matrix(-0.4,0,0,-0.4,-4,0)"
         style="fill:#fa3f2d;fill-opacity:1;fill-rule:evenodd;stroke:#fa3f2d;stroke-width:1pt;stroke-opacity:1"
         d="M 0,0 5,-5 -12.5,0 5,5 Z"
         id="path1789" />
    </marker>
    <marker
       style="overflow:visible"
       id="marker1781"
       refX="0"
       refY="0"
       orient="auto"
       inkscape:stockid="Arrow1Mend"
       inkscape:isstock="true">
      <path
         transform="matrix(-0.4,0,0,-0.4,-4,0)"
         style="fill:#30a4ff;fill-opacity:1;fill-rule:evenodd;stroke:#30a4ff;stroke-width:1pt;stroke-opacity:1"
         d="M 0,0 5,-5 -12.5,0 5,5 Z"
         id="path1779" />
    </marker>
    <marker
       style="overflow:visible"
       id="marker1565"
       refX="0"
       refY="0"
       orient="auto"
       inkscape:stockid="Arrow1Mend"
       inkscape:isstock="true">
      <path
         transform="matrix(-0.4,0,0,-0.4,-4,0)"
         style="fill:#fa3f2d;fill-opacity:1;fill-rule:evenodd;stroke:#fa3f2d;stroke-width:1pt;stroke-opacity:1"
         d="M 0,0 5,-5 -12.5,0 5,5 Z"
         id="path1563" />
    </marker>
    <marker
       style="overflow:visible"
       id="marker1555"
       refX="0"
       refY="0"
       orient="auto"
       inkscape:stockid="Arrow1Mend"
       inkscape:isstock="true">
      <path
         transform="matrix(-0.4,0,0,-0.4,-4,0)"
         style="fill:#01f556;fill-opacity:1;fill-rule:evenodd;stroke:#01f556;stroke-width:1pt;stroke-opacity:1"
         d="M 0,0 5,-5 -12.5,0 5,5 Z"
         id="path1553" />
    </marker>
    <marker
       style="overflow:visible"
       id="marker1419"
       refX="0"
       refY="0"
       orient="auto"
       inkscape:stockid="Arrow1Mend"
       inkscape:isstock="true">
      <path
         transform="matrix(-0.4,0,0,-0.4,-4,0)"
         style="fill:#f08813;fill-opacity:1;fill-rule:evenodd;stroke:#f08813;stroke-width:1pt;stroke-opacity:1"
         d="M 0,0 5,-5 -12.5,0 5,5 Z"
         id="path1417" />
    </marker>
    <marker
       style="overflow:visible"
       id="marker1409"
       refX="0"
       refY="0"
       orient="auto"
       inkscape:stockid="Arrow1Mend"
       inkscape:isstock="true">
      <path
         transform="matrix(-0.4,0,0,-0.4,-4,0)"
         style="fill:#01f556;fill-opacity:1;fill-rule:evenodd;stroke:#01f556;stroke-width:1pt;stroke-opacity:1"
         d="M 0,0 5,-5 -12.5,0 5,5 Z"
         id="path1407" />
    </marker>
    <marker
       style="overflow:visible"
       id="marker1177"
       refX="0"
       refY="0"
       orient="auto"
       inkscape:stockid="Arrow1Mend"
       inkscape:isstock="true">
      <path
         transform="matrix(-0.4,0,0,-0.4,-4,0)"
         style="fill:#30a4ff;fill-opacity:1;fill-rule:evenodd;stroke:#30a4ff;stroke-width:1pt;stroke-opacity:1"
         d="M 0,0 5,-5 -12.5,0 5,5 Z"
         id="path1175" />
    </marker>
    <marker
       style="overflow:visible"
       id="marker1137"
       refX="0"
       refY="0"
       orient="auto"
       inkscape:stockid="Arrow1Mend"
       inkscape:isstock="true">
      <path
         transform="matrix(-0.4,0,0,-0.4,-4,0)"
         style="fill:#f08813;fill-opacity:1;fill-rule:evenodd;stroke:#f08813;stroke-width:1pt;stroke-opacity:1"
         d="M 0,0 5,-5 -12.5,0 5,5 Z"
         id="path1135" />
    </marker>
  </defs>
  <sodipodi:namedview
     id="base"
     pagecolor="#ffffff"
     bordercolor="#666666"
     borderopacity="1.0"
     inkscape:pageopacity="0.0"
     inkscape:pageshadow="2"
     inkscape:zoom="0.47337633"
     inkscape:cx="373.48278"
     inkscape:cy="325.71835"
     inkscape:document-units="mm"
     inkscape:current-layer="layer1"
     inkscape:document-rotation="0"
     showgrid="false"
     units="in"
     inkscape:window-width="1596"
     inkscape:window-height="845"
     inkscape:window-x="0"
     inkscape:window-y="53"
     inkscape:window-maximized="0">
    <inkscape:grid
       type="xygrid"
       id="grid835"
       originx="-51.32592"
       originy="-122.35042" />
  </sodipodi:namedview>
  <metadata
     id="metadata5">
    <rdf:RDF>
      <cc:Work
         rdf:about="">
        <dc:format>image/svg+xml</dc:format>
        <dc:type
           rdf:resource="http://purl.org/dc/dcmitype/StillImage" />
        <dc:title></dc:title>
      </cc:Work>
    </rdf:RDF>
  </metadata>
  <g
     inkscape:label="Layer 1"
     inkscape:groupmode="layer"
     id="layer1"
     transform="translate(-51.325917,-122.35041)">
    <path
       style="fill:none;stroke:#f08813;stroke-width:0.347611;stroke-linecap:butt;stroke-linejoin:miter;stroke-miterlimit:4;stroke-dasharray:none;stroke-opacity:1;marker-end:url(#marker1137)"
       d="m 162.0491,131.35147 c 3.55931,-1.60235 7.40519,-2.79457 11.66779,-3.361 18.27971,-2.42907 40.70254,7.49368 54.72403,7.57124"
       id="path1133" />
    <path
       style="fill:none;stroke:#30a4ff;stroke-width:0.347611;stroke-linecap:butt;stroke-linejoin:miter;stroke-miterlimit:4;stroke-dasharray:none;stroke-opacity:1;marker-end:url(#marker1781)"
       d="m 141.2203,145.67537 c 4.71332,-3.80023 9.42287,-7.77453 14.67135,-11.02355"
       id="path1777" />
    <path
       style="fill:none;stroke:#fa3f2d;stroke-width:0.347611;stroke-linecap:butt;stroke-linejoin:miter;stroke-miterlimit:4;stroke-dasharray:none;stroke-opacity:1;marker-end:url(#marker1791)"
       d="m 67.256602,136.60782 c 4.527516,9.9562 24.483251,21.12749 40.710668,22.53879 14.11846,1.22788 23.69351,-5.76366 33.25303,-13.47124"
       id="path1131" />
    <path
       style="fill:none;stroke:#01f556;stroke-width:0.347611;stroke-linecap:butt;stroke-linejoin:miter;stroke-miterlimit:4;stroke-dasharray:none;stroke-opacity:1;marker-end:url(#marker1409)"
       d="m 111.99097,131.015 c -16.540273,-7.61595 -31.670872,-12.04068 -41.867937,-4.84158 -2.350411,1.65939 -3.531984,3.59913 -3.765748,5.69262"
       id="path1405" />
    <path
       style="fill:none;stroke:#f08813;stroke-width:0.347611;stroke-linecap:butt;stroke-linejoin:miter;stroke-miterlimit:4;stroke-dasharray:none;stroke-opacity:1;marker-end:url(#marker1419)"
       d="M 138.39232,144.27378 C 129.54059,139.78055 120.5759,134.96792 111.99097,131.015"
       id="path1129" />
    <path
       style="fill:none;stroke:#01f556;stroke-width:0.347611;stroke-linecap:butt;stroke-linejoin:miter;stroke-miterlimit:4;stroke-dasharray:none;stroke-opacity:1;marker-end:url(#marker1555)"
       d="m 159.27882,132.88838 c 5.86804,0.87932 11.24859,2.08782 15.89115,3.70487 10.47393,3.64818 25.73152,13.35102 17.58172,18.6236 -11.92753,7.71661 -29.72059,1.17173 -48.53083,-8.03252"
       id="path1551" />
    <path
       style="fill:none;stroke:#fa3f2d;stroke-width:0.347611;stroke-linecap:butt;stroke-linejoin:miter;stroke-miterlimit:4;stroke-dasharray:none;stroke-opacity:1;marker-end:url(#marker1565)"
       d="m 116.87106,130.9997 c 14.72646,-0.3756 29.70867,-0.0143 42.40776,1.88868"
       id="path1127" />
    <path
       style="fill:none;stroke:#30a4ff;stroke-width:0.347611;stroke-linecap:butt;stroke-linejoin:miter;stroke-miterlimit:4;stroke-dasharray:none;stroke-opacity:1;marker-end:url(#marker1177)"
       d="m 51.325917,135.66847 c 5.444106,0 29.994976,-3.20457 57.131713,-4.3776"
       id="path833" />
  </g>
</svg>
